<svg width="328" height="283" viewBox="0 0 328 283" fill="none" xmlns="http://www.w3.org/2000/svg">
<g filter="url(#filter0_b)">
<rect width="201.383" height="201.383" rx="3" transform="matrix(0.711847 0.702335 -0.711847 0.702335 184.355 0)" fill="#485BFA"/>
</g>
<path d="M128.704 146.25V140.298H126.32V138.282H133.728V140.298H131.344V146.25H128.704ZM138.774 146.506C137.537 146.506 136.492 146.111 135.638 145.322C134.785 144.532 134.358 143.503 134.358 142.234C134.358 140.964 134.785 139.946 135.638 139.178C136.492 138.41 137.537 138.026 138.774 138.026C140.022 138.026 141.073 138.41 141.926 139.178C142.78 139.946 143.206 140.964 143.206 142.234C143.206 143.503 142.78 144.532 141.926 145.322C141.073 146.111 140.022 146.506 138.774 146.506ZM137.398 143.69C137.74 144.095 138.204 144.298 138.79 144.298C139.377 144.298 139.836 144.095 140.166 143.69C140.508 143.274 140.678 142.788 140.678 142.234C140.678 141.69 140.508 141.215 140.166 140.81C139.825 140.404 139.361 140.202 138.774 140.202C138.188 140.202 137.729 140.404 137.398 140.81C137.068 141.204 136.902 141.679 136.902 142.234C136.902 142.788 137.068 143.274 137.398 143.69ZM144.868 146.25V138.282H147.508V141.098H150.1V138.282H152.74V146.25H150.1V143.114H147.508V146.25H144.868ZM154.79 146.25V138.282H157.43V141.098H160.022V138.282H162.662V146.25H160.022V143.114H157.43V146.25H154.79ZM168.712 146.25V138.282H176.584V146.25H173.944V140.298H171.352V146.25H168.712ZM178.633 150.09V138.282H181.129V139.258H181.177C181.433 138.906 181.78 138.618 182.217 138.394C182.665 138.17 183.167 138.058 183.721 138.058C184.841 138.058 185.748 138.468 186.441 139.29C187.145 140.1 187.497 141.082 187.497 142.234C187.497 143.407 187.151 144.41 186.457 145.242C185.775 146.063 184.857 146.474 183.705 146.474C183.215 146.474 182.751 146.378 182.313 146.186C181.876 145.983 181.535 145.711 181.289 145.37H181.257V150.09H178.633ZM183.081 144.298C183.668 144.298 184.127 144.095 184.457 143.69C184.788 143.284 184.953 142.799 184.953 142.234C184.953 141.679 184.788 141.204 184.457 140.81C184.127 140.404 183.668 140.202 183.081 140.202C182.516 140.202 182.052 140.41 181.689 140.826C181.337 141.242 181.161 141.716 181.161 142.25C181.161 142.794 181.337 143.274 181.689 143.69C182.052 144.095 182.516 144.298 183.081 144.298ZM193.165 146.506C191.928 146.506 190.882 146.111 190.029 145.322C189.176 144.532 188.749 143.503 188.749 142.234C188.749 140.964 189.176 139.946 190.029 139.178C190.882 138.41 191.928 138.026 193.165 138.026C194.413 138.026 195.464 138.41 196.317 139.178C197.17 139.946 197.597 140.964 197.597 142.234C197.597 143.503 197.17 144.532 196.317 145.322C195.464 146.111 194.413 146.506 193.165 146.506ZM191.789 143.69C192.13 144.095 192.594 144.298 193.181 144.298C193.768 144.298 194.226 144.095 194.557 143.69C194.898 143.274 195.069 142.788 195.069 142.234C195.069 141.69 194.898 141.215 194.557 140.81C194.216 140.404 193.752 140.202 193.165 140.202C192.578 140.202 192.12 140.404 191.789 140.81C191.458 141.204 191.293 141.679 191.293 142.234C191.293 142.788 191.458 143.274 191.789 143.69ZM198.207 148.25V144.218H198.959C199.61 143.396 199.935 142.095 199.935 140.314V138.282H207.183V144.218H208.287V148.25H206.143V146.25H200.351V148.25H198.207ZM201.663 144.218H204.543V140.298H202.399V140.97C202.399 142.324 202.154 143.407 201.663 144.218ZM210.547 150.09C210.057 150.09 209.577 150.031 209.107 149.914L209.395 147.706C209.705 147.802 209.987 147.85 210.243 147.85C210.627 147.85 210.91 147.764 211.091 147.594C211.283 147.434 211.449 147.162 211.587 146.778L211.843 146.122L208.515 138.282H211.427L213.203 143.402H213.251L214.835 138.282H217.619L214.051 147.45C213.71 148.346 213.278 149.007 212.755 149.434C212.233 149.871 211.497 150.09 210.547 150.09ZM218.633 146.25V138.282H221.273V141.658H221.321L223.929 138.282H227.113L223.993 142.01L227.257 146.25H224.041L221.321 142.65H221.273V146.25H218.633ZM235.076 148.25V146.25H228.212V138.282H230.852V144.218H233.476V138.282H236.116V144.218H237.22V148.25H235.076ZM238.477 146.25V138.282H241.069V142.922H241.101L243.869 138.282H246.653V146.25H244.093V141.722H244.045L241.325 146.25H238.477ZM248.696 146.25V138.282H251.288V142.922H251.32L254.088 138.282H256.872V146.25H254.312V141.722H254.264L251.544 146.25H248.696ZM127.024 168.25V160.282H129.616V164.922H129.648L132.416 160.282H135.2V168.25H132.64V163.722H132.592L129.872 168.25H127.024ZM140.203 168.554C138.528 168.554 137.253 168.1 136.379 167.194L137.691 165.754C138.213 166.362 138.896 166.666 139.739 166.666C140.123 166.666 140.437 166.596 140.683 166.458C140.939 166.319 141.067 166.111 141.067 165.834C141.067 165.268 140.533 164.986 139.467 164.986H138.779V163.354H139.499C140.416 163.354 140.875 163.092 140.875 162.57C140.875 162.122 140.501 161.898 139.755 161.898C138.997 161.898 138.395 162.138 137.947 162.618L136.699 161.29C137.488 160.447 138.619 160.026 140.091 160.026C141.072 160.026 141.861 160.223 142.459 160.618C143.067 161.002 143.371 161.535 143.371 162.218C143.371 162.676 143.232 163.076 142.955 163.418C142.688 163.748 142.347 163.962 141.931 164.058V164.106C142.443 164.223 142.848 164.447 143.147 164.778C143.456 165.108 143.611 165.535 143.611 166.058C143.611 166.847 143.264 167.46 142.571 167.898C141.888 168.335 141.099 168.554 140.203 168.554ZM145.274 168.25V160.282H151.114V162.298H147.914V168.25H145.274ZM156.165 168.506C154.928 168.506 153.882 168.111 153.029 167.322C152.176 166.532 151.749 165.503 151.749 164.234C151.749 162.964 152.176 161.946 153.029 161.178C153.882 160.41 154.928 160.026 156.165 160.026C157.413 160.026 158.464 160.41 159.317 161.178C160.17 161.946 160.597 162.964 160.597 164.234C160.597 165.503 160.17 166.532 159.317 167.322C158.464 168.111 157.413 168.506 156.165 168.506ZM154.789 165.69C155.13 166.095 155.594 166.298 156.181 166.298C156.768 166.298 157.226 166.095 157.557 165.69C157.898 165.274 158.069 164.788 158.069 164.234C158.069 163.69 157.898 163.215 157.557 162.81C157.216 162.404 156.752 162.202 156.165 162.202C155.578 162.202 155.12 162.404 154.789 162.81C154.458 163.204 154.293 163.679 154.293 164.234C154.293 164.788 154.458 165.274 154.789 165.69ZM163.626 168.25V162.298H161.242V160.282H168.65V162.298H166.266V168.25H163.626ZM172.205 168.442C171.736 168.442 171.293 168.372 170.877 168.234C170.472 168.084 170.109 167.812 169.789 167.418C169.469 167.023 169.309 166.532 169.309 165.946C169.309 164.154 171.016 163.258 174.429 163.258V163.13C174.429 162.756 174.296 162.474 174.029 162.282C173.763 162.079 173.416 161.978 172.989 161.978C172.264 161.978 171.608 162.25 171.021 162.794L169.693 161.37C170.643 160.474 171.827 160.026 173.245 160.026C174.557 160.026 175.496 160.362 176.061 161.034C176.627 161.695 176.909 162.762 176.909 164.234V168.25H174.509V167.402H174.461C174.269 167.722 173.965 167.978 173.549 168.17C173.133 168.351 172.685 168.442 172.205 168.442ZM172.861 166.682C173.384 166.682 173.789 166.538 174.077 166.25C174.365 165.951 174.509 165.551 174.509 165.05V164.778H174.173C172.541 164.778 171.725 165.14 171.725 165.866C171.725 166.143 171.837 166.351 172.061 166.49C172.285 166.618 172.552 166.682 172.861 166.682ZM178.868 168.25V160.282H183.284C185.236 160.282 186.212 160.98 186.212 162.378C186.212 162.783 186.094 163.135 185.86 163.434C185.636 163.732 185.332 163.94 184.948 164.058V164.09C185.406 164.175 185.79 164.383 186.1 164.714C186.409 165.044 186.564 165.46 186.564 165.962C186.564 166.719 186.276 167.29 185.7 167.674C185.124 168.058 184.388 168.25 183.492 168.25H178.868ZM181.428 166.634H182.724C183.076 166.634 183.364 166.559 183.588 166.41C183.822 166.25 183.94 166.026 183.94 165.738C183.94 165.151 183.524 164.858 182.692 164.858H181.428V166.634ZM181.428 163.498H182.708C182.985 163.498 183.22 163.428 183.412 163.29C183.614 163.151 183.716 162.943 183.716 162.666C183.716 162.143 183.342 161.882 182.596 161.882H181.428V163.498ZM188.723 168.346C188.04 168.346 187.56 168.303 187.283 168.218L187.443 166.218C187.571 166.26 187.736 166.282 187.939 166.282C188.376 166.282 188.707 166.068 188.931 165.642C189.166 165.204 189.283 164.404 189.283 163.242V160.282H196.419V168.25H193.779V162.298H191.811V163.722C191.811 165.396 191.555 166.586 191.043 167.29C190.542 167.994 189.768 168.346 188.723 168.346ZM198.462 168.25V160.282H201.054V164.922H201.086L203.854 160.282H206.638V168.25H204.078V163.722H204.03L201.31 168.25H198.462ZM208.68 168.25V160.282H213.096C215.048 160.282 216.024 160.98 216.024 162.378C216.024 162.783 215.907 163.135 215.672 163.434C215.448 163.732 215.144 163.94 214.76 164.058V164.09C215.219 164.175 215.603 164.383 215.912 164.714C216.222 165.044 216.376 165.46 216.376 165.962C216.376 166.719 216.088 167.29 215.512 167.674C214.936 168.058 214.2 168.25 213.304 168.25H208.68ZM211.24 166.634H212.536C212.888 166.634 213.176 166.559 213.4 166.41C213.635 166.25 213.752 166.026 213.752 165.738C213.752 165.151 213.336 164.858 212.504 164.858H211.24V166.634ZM211.24 163.498H212.52C212.798 163.498 213.032 163.428 213.224 163.29C213.427 163.151 213.528 162.943 213.528 162.666C213.528 162.143 213.155 161.882 212.408 161.882H211.24V163.498ZM220.44 168.442C219.97 168.442 219.528 168.372 219.112 168.234C218.706 168.084 218.344 167.812 218.024 167.418C217.704 167.023 217.544 166.532 217.544 165.946C217.544 164.154 219.25 163.258 222.664 163.258V163.13C222.664 162.756 222.53 162.474 222.264 162.282C221.997 162.079 221.65 161.978 221.224 161.978C220.498 161.978 219.842 162.25 219.256 162.794L217.928 161.37C218.877 160.474 220.061 160.026 221.48 160.026C222.792 160.026 223.73 160.362 224.296 161.034C224.861 161.695 225.144 162.762 225.144 164.234V168.25H222.744V167.402H222.696C222.504 167.722 222.2 167.978 221.784 168.17C221.368 168.351 220.92 168.442 220.44 168.442ZM221.096 166.682C221.618 166.682 222.024 166.538 222.312 166.25C222.6 165.951 222.744 165.551 222.744 165.05V164.778H222.408C220.776 164.778 219.96 165.14 219.96 165.866C219.96 166.143 220.072 166.351 220.296 166.49C220.52 166.618 220.786 166.682 221.096 166.682ZM231.086 168.506C229.838 168.506 228.793 168.132 227.95 167.386C227.118 166.628 226.702 165.599 226.702 164.298C226.702 163.018 227.107 161.988 227.918 161.21C228.739 160.42 229.769 160.026 231.006 160.026C232.201 160.026 233.166 160.415 233.902 161.194C234.638 161.962 235.006 163.018 235.006 164.362C235.006 164.65 235.001 164.858 234.99 164.986H229.214C229.257 165.412 229.465 165.77 229.838 166.058C230.211 166.346 230.638 166.49 231.118 166.49C231.886 166.49 232.473 166.212 232.878 165.658L234.702 166.81C233.923 167.94 232.718 168.506 231.086 168.506ZM229.214 163.354H232.59C232.59 162.916 232.451 162.554 232.174 162.266C231.907 161.978 231.523 161.834 231.022 161.834C230.531 161.834 230.115 161.983 229.774 162.282C229.433 162.58 229.246 162.938 229.214 163.354ZM238.126 168.25V162.298H235.742V160.282H243.15V162.298H240.766V168.25H238.126ZM248.244 168.506C246.954 168.506 245.887 168.122 245.044 167.354C244.202 166.586 243.78 165.556 243.78 164.266C243.78 162.996 244.202 161.972 245.044 161.194C245.898 160.415 246.959 160.026 248.228 160.026C248.794 160.026 249.348 160.127 249.892 160.33C250.447 160.522 250.879 160.778 251.188 161.098L249.668 162.858C249.53 162.666 249.327 162.511 249.06 162.394C248.804 162.276 248.543 162.218 248.276 162.218C247.732 162.218 247.29 162.42 246.948 162.826C246.607 163.22 246.436 163.7 246.436 164.266C246.436 164.831 246.607 165.311 246.948 165.706C247.29 166.1 247.743 166.298 248.308 166.298C248.927 166.298 249.402 166.1 249.732 165.706L251.188 167.482C250.484 168.164 249.503 168.506 248.244 168.506ZM251.683 168.25L253.555 165.322C252.478 164.938 251.939 164.148 251.939 162.954C251.939 162.068 252.248 161.402 252.867 160.954C253.486 160.506 254.264 160.282 255.203 160.282H259.651V168.25H257.011V165.61H256.035L254.675 168.25H251.683ZM255.747 163.962H257.011V161.946H255.747C255.352 161.946 255.032 162.031 254.787 162.202C254.542 162.372 254.419 162.623 254.419 162.954C254.419 163.626 254.862 163.962 255.747 163.962ZM131.008 190.506C129.76 190.506 128.715 190.132 127.872 189.386C127.04 188.628 126.624 187.599 126.624 186.298C126.624 185.018 127.029 183.988 127.84 183.21C128.661 182.42 129.691 182.026 130.928 182.026C132.123 182.026 133.088 182.415 133.824 183.194C134.56 183.962 134.928 185.018 134.928 186.362C134.928 186.65 134.923 186.858 134.912 186.986H129.136C129.179 187.412 129.387 187.77 129.76 188.058C130.133 188.346 130.56 188.49 131.04 188.49C131.808 188.49 132.395 188.212 132.8 187.658L134.624 188.81C133.845 189.94 132.64 190.506 131.008 190.506ZM129.136 185.354H132.512C132.512 184.916 132.373 184.554 132.096 184.266C131.829 183.978 131.445 183.834 130.944 183.834C130.453 183.834 130.037 183.983 129.696 184.282C129.355 184.58 129.168 184.938 129.136 185.354ZM135.045 190.25L137.957 186.042L135.237 182.282H138.277L140.597 185.818H140.645V182.282H143.285V185.818H143.333L145.653 182.282H148.693L145.973 186.042L148.885 190.25H145.829L143.333 186.522H143.285V190.25H140.645V186.522H140.597L138.101 190.25H135.045ZM153.414 190.506C152.166 190.506 151.121 190.132 150.278 189.386C149.446 188.628 149.03 187.599 149.03 186.298C149.03 185.018 149.436 183.988 150.246 183.21C151.068 182.42 152.097 182.026 153.334 182.026C154.529 182.026 155.494 182.415 156.23 183.194C156.966 183.962 157.334 185.018 157.334 186.362C157.334 186.65 157.329 186.858 157.318 186.986H151.542C151.585 187.412 151.793 187.77 152.166 188.058C152.54 188.346 152.966 188.49 153.446 188.49C154.214 188.49 154.801 188.212 155.206 187.658L157.03 188.81C156.252 189.94 155.046 190.506 153.414 190.506ZM151.542 185.354H154.918C154.918 184.916 154.78 184.554 154.502 184.266C154.236 183.978 153.852 183.834 153.35 183.834C152.86 183.834 152.444 183.983 152.102 184.282C151.761 184.58 151.574 184.938 151.542 185.354ZM158.962 190.25V182.282H162.434L164.37 187.034H164.402L166.226 182.282H169.73V190.25H167.202V185.018H167.154L165.106 190.25H163.506L161.474 185.002H161.426V190.25H158.962ZM175.758 190.506C174.51 190.506 173.465 190.132 172.622 189.386C171.79 188.628 171.374 187.599 171.374 186.298C171.374 185.018 171.779 183.988 172.59 183.21C173.411 182.42 174.441 182.026 175.678 182.026C176.873 182.026 177.838 182.415 178.574 183.194C179.31 183.962 179.678 185.018 179.678 186.362C179.678 186.65 179.673 186.858 179.662 186.986H173.886C173.929 187.412 174.137 187.77 174.51 188.058C174.883 188.346 175.31 188.49 175.79 188.49C176.558 188.49 177.145 188.212 177.55 187.658L179.374 188.81C178.595 189.94 177.39 190.506 175.758 190.506ZM173.886 185.354H177.262C177.262 184.916 177.123 184.554 176.846 184.266C176.579 183.978 176.195 183.834 175.694 183.834C175.203 183.834 174.787 183.983 174.446 184.282C174.105 184.58 173.918 184.938 173.886 185.354ZM185.369 190.506C184.079 190.506 183.012 190.122 182.169 189.354C181.327 188.586 180.905 187.556 180.905 186.266C180.905 184.996 181.327 183.972 182.169 183.194C183.023 182.415 184.084 182.026 185.353 182.026C185.919 182.026 186.473 182.127 187.017 182.33C187.572 182.522 188.004 182.778 188.313 183.098L186.793 184.858C186.655 184.666 186.452 184.511 186.185 184.394C185.929 184.276 185.668 184.218 185.401 184.218C184.857 184.218 184.415 184.42 184.073 184.826C183.732 185.22 183.561 185.7 183.561 186.266C183.561 186.831 183.732 187.311 184.073 187.706C184.415 188.1 184.868 188.298 185.433 188.298C186.052 188.298 186.527 188.1 186.857 187.706L188.313 189.482C187.609 190.164 186.628 190.506 185.369 190.506ZM188.808 190.25L190.68 187.322C189.603 186.938 189.064 186.148 189.064 184.954C189.064 184.068 189.373 183.402 189.992 182.954C190.611 182.506 191.389 182.282 192.328 182.282H196.776V190.25H194.136V187.61H193.16L191.8 190.25H188.808ZM192.872 185.962H194.136V183.946H192.872C192.477 183.946 192.157 184.031 191.912 184.202C191.667 184.372 191.544 184.623 191.544 184.954C191.544 185.626 191.987 185.962 192.872 185.962ZM203.698 190.25V187.514C203.186 187.652 202.514 187.722 201.682 187.722C199.74 187.722 198.77 186.895 198.77 185.242V182.282H201.346V184.442C201.346 184.954 201.447 185.3 201.65 185.482C201.852 185.663 202.178 185.754 202.626 185.754C202.86 185.754 203.218 185.706 203.698 185.61V182.282H206.338V190.25H203.698ZM208.383 190.25V182.282H211.023V185.098H213.615V182.282H216.255V190.25H213.615V187.114H211.023V190.25H208.383ZM222.321 190.506C221.084 190.506 220.039 190.111 219.185 189.322C218.332 188.532 217.905 187.503 217.905 186.234C217.905 184.964 218.332 183.946 219.185 183.178C220.039 182.41 221.084 182.026 222.321 182.026C223.569 182.026 224.62 182.41 225.473 183.178C226.327 183.946 226.753 184.964 226.753 186.234C226.753 187.503 226.327 188.532 225.473 189.322C224.62 190.111 223.569 190.506 222.321 190.506ZM220.945 187.69C221.287 188.095 221.751 188.298 222.337 188.298C222.924 188.298 223.383 188.095 223.713 187.69C224.055 187.274 224.225 186.788 224.225 186.234C224.225 185.69 224.055 185.215 223.713 184.81C223.372 184.404 222.908 184.202 222.321 184.202C221.735 184.202 221.276 184.404 220.945 184.81C220.615 185.204 220.449 185.679 220.449 186.234C220.449 186.788 220.615 187.274 220.945 187.69Z" fill="white"/>
<path d="M125.86 89.9412H129.685V113.971H134.635V82.4712H131.305C130.54 84.5862 129.685 86.4312 125.86 86.4312V89.9412ZM151.082 91.9662C151.082 94.4862 149.957 95.2962 148.112 95.2962H146.177V99.7962H147.842C150.092 99.7962 151.082 100.876 151.082 103.801V106.276C151.082 109.066 150.092 109.831 148.517 109.831C146.942 109.831 145.952 108.976 145.952 106.726V103.801H141.272V106.411C141.272 111.451 143.792 114.331 148.652 114.331C153.512 114.331 156.032 111.451 156.032 106.411V103.936C156.032 100.741 155.042 98.4012 152.567 97.3212C154.952 96.3312 156.032 94.2162 156.032 90.8412V90.0312C156.032 84.9912 153.512 82.1112 148.652 82.1112C143.792 82.1112 141.272 84.9912 141.272 90.0312V91.7412H145.952V89.7162C145.952 87.4662 146.942 86.6112 148.517 86.6112C150.092 86.6112 151.082 87.3762 151.082 90.2112V91.9662ZM164.829 89.7162C164.829 87.4662 165.819 86.6112 167.394 86.6112C168.969 86.6112 169.959 87.4662 169.959 89.7162V106.726C169.959 108.976 168.969 109.831 167.394 109.831C165.819 109.831 164.829 108.976 164.829 106.726V89.7162ZM159.879 106.411C159.879 111.451 162.534 114.331 167.394 114.331C172.254 114.331 174.909 111.451 174.909 106.411V90.0312C174.909 84.9912 172.254 82.1112 167.394 82.1112C162.534 82.1112 159.879 84.9912 159.879 90.0312V106.411ZM187.89 90.3912H184.38V96.4662H178.35V99.9762H184.38V106.141H187.89V99.9762H193.92V96.4662H187.89V90.3912Z" fill="white"/>
<g filter="url(#filter1_b)">
<rect width="47.3081" height="47.3081" rx="3" transform="matrix(0.711847 0.702335 -0.711847 0.702335 33.6758 67.0913)" fill="#485BFA"/>
</g>
<g filter="url(#filter2_b)">
<rect width="33.3557" height="33.3557" rx="3" transform="matrix(0.711847 0.702335 -0.711847 0.702335 262.164 220.845)" fill="#485BFA"/>
</g>
<defs>
<filter id="filter0_b" x="38.2539" y="-2.76562" width="292.206" height="288.408" filterUnits="userSpaceOnUse" color-interpolation-filters="sRGB">
<feFlood flood-opacity="0" result="BackgroundImageFix"/>
<feGaussianBlur in="BackgroundImage" stdDeviation="2"/>
<feComposite in2="SourceAlpha" operator="in" result="effect1_backgroundBlur"/>
<feBlend mode="normal" in="SourceGraphic" in2="effect1_backgroundBlur" result="shape"/>
</filter>
<filter id="filter1_b" x="-2.75" y="64.3257" width="72.8503" height="71.9838" filterUnits="userSpaceOnUse" color-interpolation-filters="sRGB">
<feFlood flood-opacity="0" result="BackgroundImageFix"/>
<feGaussianBlur in="BackgroundImage" stdDeviation="2"/>
<feComposite in2="SourceAlpha" operator="in" result="effect1_backgroundBlur"/>
<feBlend mode="normal" in="SourceGraphic" in2="effect1_backgroundBlur" result="shape"/>
</filter>
<filter id="filter2_b" x="235.672" y="218.079" width="52.9863" height="52.3852" filterUnits="userSpaceOnUse" color-interpolation-filters="sRGB">
<feFlood flood-opacity="0" result="BackgroundImageFix"/>
<feGaussianBlur in="BackgroundImage" stdDeviation="2"/>
<feComposite in2="SourceAlpha" operator="in" result="effect1_backgroundBlur"/>
<feBlend mode="normal" in="SourceGraphic" in2="effect1_backgroundBlur" result="shape"/>
</filter>
</defs>
</svg>
