<svg width="12" height="14" viewBox="0 0 12 14" fill="none" xmlns="http://www.w3.org/2000/svg">
<path d="M7 1C7 0.447715 6.55228 -1.94416e-07 6 -2.18557e-07C5.44772 -2.42698e-07 5 0.447715 5 1L7 1ZM6 13L5.29289 13.7071C5.68342 14.0976 6.31658 14.0976 6.70711 13.7071L6 13ZM11.7071 8.70711C12.0976 8.31658 12.0976 7.68342 11.7071 7.29289C11.3166 6.90237 10.6834 6.90237 10.2929 7.29289L11.7071 8.70711ZM1.70711 7.29289C1.31658 6.90237 0.683417 6.90237 0.292893 7.29289C-0.0976314 7.68342 -0.0976314 8.31658 0.292893 8.70711L1.70711 7.29289ZM5 1L5 13L7 13L7 1L5 1ZM6.70711 13.7071L11.7071 8.70711L10.2929 7.29289L5.29289 12.2929L6.70711 13.7071ZM6.70711 12.2929L1.70711 7.29289L0.292893 8.70711L5.29289 13.7071L6.70711 12.2929Z" fill="#485BFA"/>
</svg>
