<svg width="14" height="12" viewBox="0 0 14 12" fill="none" xmlns="http://www.w3.org/2000/svg">
<path d="M1 5C0.447715 5 0 5.44772 0 6C0 6.55228 0.447715 7 1 7V5ZM13 6L13.7071 6.70711C14.0976 6.31658 14.0976 5.68342 13.7071 5.29289L13 6ZM8.70711 0.292893C8.31658 -0.0976311 7.68342 -0.0976311 7.29289 0.292893C6.90237 0.683417 6.90237 1.31658 7.29289 1.70711L8.70711 0.292893ZM7.29289 10.2929C6.90237 10.6834 6.90237 11.3166 7.29289 11.7071C7.68342 12.0976 8.31658 12.0976 8.70711 11.7071L7.29289 10.2929ZM1 7H13V5H1V7ZM13.7071 5.29289L8.70711 0.292893L7.29289 1.70711L12.2929 6.70711L13.7071 5.29289ZM12.2929 5.29289L7.29289 10.2929L8.70711 11.7071L13.7071 6.70711L12.2929 5.29289Z" fill="#FFAC5F"/>
</svg>
