<svg width="32" height="32" viewBox="0 0 32 32" fill="none" xmlns="http://www.w3.org/2000/svg">
<g opacity="0.3">
<path d="M3.06066 0.939342C2.47487 0.353556 1.52513 0.353556 0.939339 0.939343C0.353553 1.52513 0.353553 2.47488 0.939339 3.06066L3.06066 0.939342ZM28.9393 31.0607C29.5251 31.6464 30.4749 31.6464 31.0607 31.0607C31.6464 30.4749 31.6464 29.5251 31.0607 28.9393L28.9393 31.0607ZM0.939339 3.06066L28.9393 31.0607L31.0607 28.9393L3.06066 0.939342L0.939339 3.06066Z" fill="white"/>
<path d="M31.0607 3.06066C31.6464 2.47487 31.6464 1.52513 31.0607 0.93934C30.4749 0.353554 29.5251 0.353554 28.9393 0.93934L31.0607 3.06066ZM0.939341 28.9393C0.353554 29.5251 0.353555 30.4749 0.939341 31.0607C1.52513 31.6464 2.47487 31.6464 3.06066 31.0607L0.939341 28.9393ZM28.9393 0.93934L0.939341 28.9393L3.06066 31.0607L31.0607 3.06066L28.9393 0.93934Z" fill="white"/>
</g>
</svg>
