<svg width="34" height="36" viewBox="0 0 34 36" fill="none" xmlns="http://www.w3.org/2000/svg">
<path d="M33.0335 19.3926L28.1812 11.7085L27.8424 13.9262L25.4205 13.1658L30.2843 20.8683L30.3098 20.9073C30.639 21.3929 30.8129 21.9538 30.8129 22.5297C30.8129 24.2178 29.3235 25.5939 27.483 25.617L27.4621 25.6157L27.4087 25.6174H20.8415V23.6743L16.1328 27.0748L20.8415 30.4752V28.5321H27.4359C27.438 28.5321 27.4405 28.5321 27.4427 28.5321L27.461 28.5319C31.0694 28.5196 34.0008 25.8317 34.0008 22.5297C34.0008 21.4191 33.6665 20.3349 33.0335 19.3926Z" fill="#141414"/>
<path d="M13.3865 27.0176L14.9804 25.6172H6.56208C5.35939 25.6172 4.23883 25.0255 3.63748 24.0733C3.03624 23.1211 3.03624 21.9378 3.63727 20.9856L6.60587 16.2847L8.42553 17.2672L7.6175 11.8311L2.02056 13.8087L3.86074 14.8024L0.876521 19.5284C-0.292174 21.3795 -0.292174 23.6794 0.876521 25.5306C2.04564 27.3817 4.22427 28.5319 6.56208 28.5319H14.9804L13.3865 27.0176Z" fill="#141414"/>
<path d="M9.56163 11.6085L14.0766 4.45825C14.678 3.50613 15.7986 2.91465 17.0013 2.91465C18.2038 2.91465 19.3245 3.50613 19.9258 4.45835L22.4448 8.44764L20.5355 9.42356L26.0798 11.5217L27.0283 6.10474L25.2277 7.02519L22.6866 3.00112C21.5175 1.14993 19.3391 0 17.0013 0C14.6633 0 12.4849 1.14993 11.3157 3.00102L6.80078 10.1513L9.17302 9.41307L9.56163 11.6085Z" fill="#141414"/>
<path d="M18.5854 21.5523V19.42H19.8893V17.4566H18.5854V10.8652H16.5444L11.7891 17.8492V19.42H16.4061V21.5523H18.5854ZM14.3354 17.4847L16.4367 14.4273L16.406 15.2408V17.4826L14.3354 17.4847Z" fill="#141414"/>
<path d="M8.79526 30.667H7.41797V35.9596H11.2437V35.0097H8.79526V30.667Z" fill="#141414"/>
<path d="M13.8834 30.667H11.8516V35.9596H13.8834C15.8558 35.9596 16.6803 35.2812 16.6803 33.4491V33.1777C16.6804 31.3456 15.8558 30.667 13.8834 30.667ZM15.2777 33.4491C15.2777 34.5076 14.9546 35.0097 13.8068 35.0097H13.2289V31.617H13.8068C14.9546 31.617 15.2777 32.1191 15.2777 33.1777V33.4491Z" fill="#141414"/>
<path d="M19.6646 30.667H17.4883V35.9596H18.8654V34.0597H19.6646C20.7442 34.0597 21.9684 33.8427 21.9684 32.4312V32.2955C21.9683 30.8909 20.7442 30.667 19.6646 30.667ZM20.5742 32.3974C20.5742 32.9945 20.0981 33.1098 19.7239 33.1098H18.8653V31.617H19.7239C20.098 31.617 20.5742 31.7324 20.5742 32.3295V32.3974Z" fill="#141414"/>
<path d="M22.6602 35.9596H26.7152V35.0097H24.0372V33.7341H26.2902V32.7841H24.0372V31.617H26.7152V30.667H22.6602V35.9596Z" fill="#141414"/>
</svg>
