<svg width="30" height="30" viewBox="0 0 30 30" fill="none" xmlns="http://www.w3.org/2000/svg">
<path d="M27.3005 15.9078C27.3452 15.3017 27.3452 14.699 27.3005 14.0921L29.5666 11.9896C29.9678 11.6174 30.0579 11.0171 29.7838 10.5435L26.2588 4.45423C25.9856 3.98226 25.4231 3.76095 24.9015 3.92079L21.9404 4.82759C21.4358 4.48423 20.9067 4.1789 20.3588 3.91464L19.6669 0.909022C19.5445 0.376991 19.0709 0 18.5249 0H11.4751C10.9292 0 10.4556 0.376991 10.3331 0.909022L9.64127 3.91464C9.0933 4.1789 8.56432 4.48423 8.05965 4.82759L5.09862 3.92079C4.57696 3.76095 4.01446 3.98226 3.74124 4.45423L0.216305 10.5435C-0.0578549 11.0171 0.0322622 11.6174 0.433453 11.9896L2.69956 14.0921C2.65491 14.6983 2.65485 15.3009 2.69956 15.9078L0.433453 18.0103C0.0322622 18.3826 -0.0578549 18.9829 0.216305 19.4565L3.74118 25.5458C4.0144 26.0177 4.57696 26.239 5.09856 26.0792L8.05959 25.1724C8.56426 25.5158 9.0933 25.8211 9.64121 26.0854L10.3331 29.091C10.4556 29.623 10.9292 30 11.4751 30H18.5249C19.0708 30 19.5444 29.623 19.6669 29.091L20.3588 26.0854C20.9068 25.8211 21.4358 25.5158 21.9404 25.1724L24.9015 26.0792C25.4231 26.2389 25.9856 26.0177 26.2588 25.5458L29.7837 19.4565C30.0579 18.9829 29.9678 18.3826 29.5666 18.0103L27.3005 15.9078ZM24.9147 13.7713C25.0154 14.5894 25.0154 15.4102 24.9147 16.2286C24.8686 16.6021 25.0048 16.975 25.2807 17.2309L27.2866 19.092L24.6971 23.5654L22.0726 22.7617C21.7133 22.6515 21.3233 22.7204 21.0234 22.9469C20.3643 23.4444 19.6469 23.8584 18.8913 24.1773C18.5447 24.3236 18.2894 24.6274 18.205 24.9941L17.5922 27.6562H12.4079L11.7951 24.9941C11.7107 24.6274 11.4554 24.3236 11.1088 24.1773C10.3532 23.8584 9.63582 23.4444 8.97664 22.9469C8.67682 22.7205 8.2867 22.6515 7.92752 22.7617L5.30299 23.5654L2.71351 19.092L4.7194 17.2309C4.99526 16.975 5.13143 16.6021 5.08538 16.2286C4.98466 15.4105 4.98466 14.5897 5.08538 13.7713C5.13143 13.3978 4.99526 13.025 4.7194 12.769L2.71351 10.9079L5.30299 6.43452L7.92752 7.23825C8.28664 7.34829 8.67676 7.27944 8.97664 7.05309C9.63582 6.55557 10.3532 6.14155 11.1088 5.82263C11.4554 5.67632 11.7107 5.37251 11.7951 5.00589L12.4079 2.34375H17.5921L18.205 5.00589C18.2893 5.37257 18.5447 5.67632 18.8913 5.82263C19.6468 6.14155 20.3643 6.55557 21.0234 7.05309C21.3233 7.27944 21.7134 7.34835 22.0726 7.23825L24.6971 6.43452L27.2866 10.9079L25.2807 12.769C25.0048 13.025 24.8686 13.3978 24.9147 13.7713Z" fill="#141414"/>
<path d="M15 10.3125C12.4153 10.3125 10.3125 12.4153 10.3125 15C10.3125 17.5847 12.4153 19.6875 15 19.6875C17.5847 19.6875 19.6875 17.5847 19.6875 15C19.6875 12.4153 17.5847 10.3125 15 10.3125ZM15 17.3437C13.7077 17.3437 12.6562 16.2923 12.6562 15C12.6562 13.7076 13.7077 12.6562 15 12.6562C16.2923 12.6562 17.3437 13.7076 17.3437 15C17.3437 16.2923 16.2924 17.3437 15 17.3437Z" fill="#141414"/>
</svg>
