<svg width="27" height="31" viewBox="0 0 27 31" fill="none" xmlns="http://www.w3.org/2000/svg">
<path d="M22.8891 9.22799L24.7452 7.37187L22.9188 5.5448L20.9332 7.53042C19.1193 6.24494 17.0026 5.45268 14.7904 5.23125V2.58333H17.3737V0H9.6237V2.58333H12.207V5.23125C9.99485 5.45268 7.87812 6.24494 6.06419 7.53042L4.07858 5.5448L2.25216 7.37187L4.10829 9.22799C2.37571 11.0624 1.21837 13.3641 0.779188 15.8489C0.34001 18.3337 0.638231 20.8927 1.63702 23.2099C2.63581 25.5271 4.29143 27.501 6.39941 28.8878C8.50739 30.2747 10.9754 31.0137 13.4987 31.0137C16.022 31.0137 18.49 30.2747 20.598 28.8878C22.706 27.501 24.3616 25.5271 25.3604 23.2099C26.3592 20.8927 26.6574 18.3337 26.2182 15.8489C25.779 13.3641 24.6217 11.0624 22.8891 9.22799ZM13.4987 28.4167C11.455 28.4167 9.45712 27.8106 7.75781 26.6752C6.0585 25.5397 4.73406 23.9259 3.95195 22.0377C3.16984 20.1496 2.96521 18.0719 3.36392 16.0674C3.76264 14.0629 4.74679 12.2217 6.19193 10.7766C7.63708 9.33142 9.4783 8.34727 11.4828 7.94855C13.4872 7.54984 15.5649 7.75447 17.4531 8.53658C19.3413 9.31868 20.9551 10.6431 22.0906 12.3424C23.226 14.0417 23.832 16.0396 23.832 18.0833C23.829 20.823 22.7393 23.4495 20.8021 25.3867C18.8649 27.3239 16.2383 28.4136 13.4987 28.4167Z" fill="#141414"/>
<path d="M13.5 10.3335V18.0835H5.75C5.75 19.6163 6.20453 21.1147 7.05611 22.3892C7.90769 23.6636 9.11808 24.657 10.5342 25.2436C11.9503 25.8301 13.5086 25.9836 15.012 25.6846C16.5153 25.3855 17.8962 24.6474 18.9801 23.5636C20.0639 22.4797 20.8021 21.0988 21.1011 19.5954C21.4001 18.0921 21.2466 16.5338 20.6601 15.1177C20.0735 13.7016 19.0802 12.4912 17.8057 11.6396C16.5312 10.788 15.0328 10.3335 13.5 10.3335Z" fill="#141414"/>
</svg>
