<svg width="30" height="30" viewBox="0 0 30 30" fill="none" xmlns="http://www.w3.org/2000/svg">
<g clip-path="url(#clip0)">
<path d="M22.5219 23.5776C20.5098 25.3446 17.8813 26.4842 14.9993 26.4842C13.3408 26.4842 11.7807 26.0397 10.3594 25.3988L11.1669 29.4368C12.3896 29.7631 13.6729 29.9998 14.9993 29.9998C18.8564 29.9998 22.3606 28.467 25.0115 26.0674L26.1856 27.2415L27.4223 21.0283L21.2143 22.2695L22.5219 23.5776Z" fill="#141414"/>
<path d="M6.4222 22.5229C4.65523 20.5108 3.51562 17.8823 3.51562 15.0002C3.51562 13.3418 3.96011 11.7817 4.60098 10.3604L0.563049 11.1678C0.236664 12.3905 0 13.6739 0 15.0002C0 18.8574 1.53282 22.3615 3.93242 25.0125L2.75986 26.1848L8.97308 27.4276L7.73026 21.2153L6.4222 22.5229Z" fill="#141414"/>
<path d="M19.6415 4.60098L18.834 0.563049C17.6113 0.236664 16.328 0 15.0016 0C11.1445 0 7.64029 1.53282 4.98938 3.93242L3.81705 2.75986L2.57422 8.97308L8.78653 7.73026L7.4787 6.4222C9.49103 4.65523 12.1195 3.51562 15.0016 3.51562C16.6601 3.51562 18.2201 3.96011 19.6415 4.60098Z" fill="#141414"/>
<path d="M27.2406 3.81558L21.0273 2.57275L22.2702 8.78506L23.5782 7.47723C25.3452 9.48956 26.4848 12.118 26.4848 15.0001C26.4848 16.6588 26.0403 18.2191 25.3992 19.6409L29.4369 18.8337C29.7638 17.6105 30.0004 16.327 30.0004 15.0001C30.0004 11.143 28.4676 7.6386 26.068 4.98769L27.2406 3.81558Z" fill="#141414"/>
</g>
<defs>
<clipPath id="clip0">
<rect width="30" height="30" fill="white"/>
</clipPath>
</defs>
</svg>
