<svg width="33" height="32" viewBox="0 0 33 32" fill="none" xmlns="http://www.w3.org/2000/svg">
<path d="M31.5944 20.2973C31.5883 20.2912 31.5822 20.2853 31.576 20.2794L28.3735 17.2574C30.1662 15.9019 30.9761 13.5025 30.2396 11.2828C26.7676 0.80787 13.4259 -2.51535 5.4761 5.31429C-0.477847 11.1783 -0.422291 20.6334 5.22675 26.4559C10.3017 31.6866 18.2982 32.4212 24.2002 28.5578C26.964 26.7492 25.6934 22.4441 22.3861 22.4441C19.916 22.4441 19.5009 18.9905 21.8342 18.3991L27.4762 24.3785C27.4822 24.3847 27.4881 24.3909 27.4942 24.397C28.6252 25.5306 30.4624 25.5336 31.5964 24.3996C32.7303 23.2658 32.7303 21.4305 31.5944 20.2973ZM19.6447 23.2018C20.3878 23.9059 21.3613 24.2937 22.3862 24.2937C23.8633 24.2937 24.4202 26.2034 23.1873 27.0102C18.0217 30.3916 11.0061 29.7564 6.55428 25.1679C1.56119 20.0216 1.5906 11.7626 6.79451 6.64386C13.7678 -0.215315 25.4311 2.65434 28.484 11.865C29.0012 13.424 28.3548 15.118 26.9991 15.9604L21.8619 11.1128C22.1729 9.61951 21.7422 8.04527 20.6136 6.91671C19.197 5.50013 15.5126 5.42869 13.5786 5.21861C12.9921 5.15473 12.4954 5.6506 12.5592 6.23804C12.771 8.17952 12.6949 11.9973 14.1139 13.4164C15.2433 14.5456 16.8183 14.9755 18.3104 14.6646L20.4743 16.9578C18.1701 18.2087 17.7022 21.361 19.6447 23.2018ZM15.4218 12.1085C14.7248 11.4115 14.1021 8.76083 13.7734 6.57616C15.9581 6.90487 18.6088 7.52763 19.3057 8.22457C20.3788 9.2977 20.379 11.035 19.3057 12.1085C18.235 13.1793 16.4973 13.1839 15.4218 12.1085ZM30.2886 23.0917C29.881 23.4993 29.2214 23.5011 28.8114 23.0983C28.338 22.5966 20.5318 14.3236 20.0968 13.8627C20.4617 13.5917 20.7888 13.2647 21.0602 12.8994L30.2958 21.6146C30.699 22.025 30.6968 22.6835 30.2886 23.0917Z" fill="#141414" stroke="#141414" stroke-width="0.7"/>
</svg>
