<svg width="20" height="45" viewBox="0 0 20 45" fill="none" xmlns="http://www.w3.org/2000/svg">
<path d="M12.2222 35.1483C12.037 34.322 11.9753 33.4958 11.9753 32.6695C11.9753 24.5339 20 22.7542 20 11.1864C20 4.06779 16.6049 0 10 0C3.39506 0 0 4.06779 0 11.1864V15.572H6.41975V10.7415C6.41975 7.56356 7.65432 6.35593 9.81482 6.35593C11.9753 6.35593 13.2099 7.56356 13.2099 10.7415C13.2099 21.8008 5.80247 22.6907 5.80247 32.4153C5.80247 33.5593 5.92593 34.3856 6.17284 35.1483H12.2222ZM5.8642 38.2627V45H12.4074V38.2627H5.8642Z" fill="#FFAC5F"/>
</svg>
