<svg width="20" height="21" viewBox="0 0 20 21" fill="none" xmlns="http://www.w3.org/2000/svg">
<circle cx="10" cy="10" r="10" fill="#485BFA"/>
<path d="M10.515 12.46V12.985H9.105V12.265C9.105 11.775 9.19 11.37 9.36 11.05C9.54 10.72 9.82 10.38 10.2 10.03L10.755 9.505C11.265 9.065 11.52 8.57 11.52 8.02C11.52 7.54 11.365 7.16 11.055 6.88C10.755 6.59 10.365 6.445 9.885 6.445C9.405 6.445 9.01 6.605 8.7 6.925C8.39 7.235 8.21 7.625 8.16 8.095L6.72 7.93C6.85 7.08 7.21 6.405 7.8 5.905C8.39 5.405 9.115 5.155 9.975 5.155C10.845 5.155 11.57 5.4 12.15 5.89C12.73 6.38 13.02 7.06 13.02 7.93C13.02 8.51 12.905 8.975 12.675 9.325C12.455 9.675 12.09 10.065 11.58 10.495C11.15 10.865 10.865 11.17 10.725 11.41C10.585 11.64 10.515 11.99 10.515 12.46ZM10.59 14.41C10.79 14.6 10.89 14.83 10.89 15.1C10.89 15.37 10.79 15.605 10.59 15.805C10.4 15.995 10.165 16.09 9.885 16.09C9.605 16.09 9.365 15.995 9.165 15.805C8.975 15.605 8.88 15.375 8.88 15.115C8.88 14.845 8.975 14.615 9.165 14.425C9.365 14.225 9.605 14.125 9.885 14.125C10.165 14.125 10.4 14.22 10.59 14.41Z" fill="white"/>
</svg>
