<svg width="35" height="36" viewBox="0 0 35 36" fill="none" xmlns="http://www.w3.org/2000/svg">
<path d="M33 18.5C33 14.5016 31.486 10.8567 29 8.10751C27.3678 6.30255 25.3167 4.88363 23 4.00414M17.5 34C23.9331 34 29.4509 30.0809 31.796 24.5M2 18.5C2 25.1277 6.15977 30.7838 12.0109 33M17.5 3C12.938 3 8.83637 4.97083 6 8.10751C4.71822 9.52501 3.69483 11.1806 3.00414 13" stroke="#141414" stroke-width="2.7"/>
<path d="M1.5 7.5L2.33333 14L5.16667 12.75L8 11.5" stroke="#141414" stroke-width="2"/>
<path d="M6 33.4536L12.553 33.4009L11.6496 30.4388L10.7462 27.4767" stroke="#141414" stroke-width="2"/>
<path d="M33.7656 29.4941L32.6602 23.0349L29.8818 24.4027L27.1034 25.7705" stroke="#141414" stroke-width="2"/>
<path d="M28.7656 2.27246L22.2364 2.83267L23.3666 5.7159L24.4967 8.59913" stroke="#141414" stroke-width="2"/>
</svg>
